<svg width="32" height="32" viewBox="0 0 32 32" fill="none" xmlns="http://www.w3.org/2000/svg">
<path d="M16 0C7.16462 0 0.00364797 7.16178 0 15.9982V16.0018V32C0 32 15.5148 32 16 32C24.8135 32 31.9599 24.8711 31.9964 16.0675C31.9964 16.0456 31.9964 16.0237 31.9964 16.0018C32 7.16178 24.8354 0 16 0ZM20.4578 15.9982C20.4578 18.4207 18.4916 20.3872 16.0693 20.3872H11.6772V15.9982C11.6772 13.5756 13.6434 11.6092 16.0657 11.6092C18.4916 11.6092 20.4578 13.5756 20.4578 15.9982Z" fill="white"/>
<path d="M31.9996 15.998H20.4574C20.4574 18.4242 18.4912 20.3871 16.0689 20.3871H11.6768V31.9962H14.5623C15.0475 31.9962 15.5144 31.9962 15.9996 31.9962C24.8131 31.9962 31.9595 24.8673 31.996 16.0637C31.9996 16.0418 31.9996 16.0199 31.9996 15.998Z" fill="url(#paint0_linear)"/>
<defs>
<linearGradient id="paint0_linear" x1="-12.9654" y1="31.568" x2="20.1079" y2="23.778" gradientUnits="userSpaceOnUse">
<stop stop-color="#5E5E61"/>
<stop offset="1" stop-color="#BABBBD" stop-opacity="0"/>
</linearGradient>
</defs>
</svg>
